<svg xmlns="http://www.w3.org/2000/svg" version="1.1" x="0" y="0" viewBox="0 0 500 136"
    xml:space="preserve">
            <polygon class="st0 logo__w" points="21 119.1 36.2 119.1 48.5 81.5 60.8 119.1 76.1 119.1 96.9 42.9 77.4 42.9 67.4 83.1 55.1 42.9 41.8 42.9 29.5 83.1 19.6 42.9 0 42.9 "></polygon>
            <polygon class="st0 logo__e" points="156.1 102.4 123.1 102.4 123.1 89 151.3 89 151.3 72.3 123.1 72.3 123.1 59.6 156.1 59.6 156.1 42.9 104.3 42.9 104.3 119.1 156.1 119.1 "></polygon>
            <polygon class="st0 logo__l" points="216.8 102.4 184.8 102.4 184.8 42.9 166 42.9 166 119.1 216.8 119.1 "></polygon>
            <polygon class="st0 logo__l2" points="226.7 119.1 277.4 119.1 277.4 102.4 245.4 102.4 245.4 42.9 226.7 42.9 "></polygon>
            <polygon class="st0 logo__e2" points="339.1 42.9 287.3 42.9 287.3 119.1 339.1 119.1 339.1 102.4 306 102.4 306 89 334.3 89 334.3 72.3 306 72.3 306 59.6 339.1 59.6 "></polygon>
            <path class="st0 logo__7" d="M500 67.9C500 30.4 469.5 0 432.1 0s-67.9 30.5-67.9 67.9c0 23.4 11.9 44 29.9 56.3l6.3-16.1c-11.9-9.4-19.5-23.9-19.5-40.2 0-28.2 23-51.2 51.2-51.2s51.2 23 51.2 51.2c0 27.4-21.6 49.8-48.7 51.1L458 59.5V42.9h-51.9v27.8h16.7V59.6h15.9l-22.5 57.1 0 0 -6.1 15.6c6.9 2.3 14.2 3.6 21.9 3.6C469.5 135.8 500 105.4 500 67.9z"></path>
        </svg>